<?xml version="1.0" encoding="utf-8"?>
<!-- Generator: Adobe Illustrator 16.0.3, SVG Export Plug-In . SVG Version: 6.00 Build 0)  -->
<!DOCTYPE svg PUBLIC "-//W3C//DTD SVG 1.1//EN" "http://www.w3.org/Graphics/SVG/1.1/DTD/svg11.dtd">
<svg version="1.1" id="Layer_1" xmlns="http://www.w3.org/2000/svg" xmlns:xlink="http://www.w3.org/1999/xlink" x="0px" y="0px"
	 width="127.999px" height="128px" viewBox="0 0 127.999 128" style="enable-background:new 0 0 127.999 128;" xml:space="preserve"
	>
<style type="text/css">
<![CDATA[
	.st0{fill:#231F20;}
]]>
</style>
<path class="st0" d="M122.191,36.473c-5.17,0-6.627,4.236-7.592,7.04c-1.127,3.277-1.705,4.607-4.736,4.607
	c-4.475,0-5.125-2.933-5.215-3.799c-0.293-3.92-3-11.335-11.152-11.335c-4.082,0-7.293,1.239-9.543,3.685
	c-1.988,2.158-2.713,4.726-2.965,6.606H8.844c-3.328,0-6.037,2.708-6.037,6.037v39.662c0,3.329,2.709,6.037,6.037,6.037H91.76
	c3.328,0,6.037-2.708,6.037-6.037V49.314c0-3.329-2.709-6.037-6.037-6.037h-4.672c0.203-0.847,0.586-1.802,1.305-2.57
	c1.07-1.142,2.787-1.721,5.104-1.721c4.439,0,5.086,4.831,5.168,5.771c0.23,3.238,2.867,9.362,11.199,9.362
	c7.432,0,9.297-5.418,10.41-8.655c1.029-2.992,1.289-2.992,1.918-2.992c1.658,0,3-1.343,3-3S123.85,36.473,122.191,36.473z
	 M70.762,54.071c0-0.92,0.746-1.665,1.664-1.665h3.055c0.918,0,1.664,0.745,1.664,1.665v3.054c0,0.919-0.746,1.664-1.664,1.664
	h-3.055c-0.918,0-1.664-0.745-1.664-1.664V54.071z M61.238,54.071c0-0.92,0.744-1.665,1.664-1.665h3.053
	c0.92,0,1.666,0.745,1.666,1.665v3.054c0,0.919-0.746,1.664-1.666,1.664h-3.053c-0.92,0-1.664-0.745-1.664-1.664V54.071z
	 M64.846,70.438c0.918,0,1.664,0.745,1.664,1.665v3.053c0,0.919-0.746,1.664-1.664,1.664h-3.053c-0.92,0-1.666-0.745-1.666-1.664
	v-3.053c0-0.92,0.746-1.665,1.666-1.665H64.846z M62.625,63.244v3.052c0,0.92-0.746,1.664-1.664,1.664h-3.055
	c-0.918,0-1.664-0.744-1.664-1.664v-3.052c0-0.921,0.746-1.666,1.664-1.666h3.055C61.879,61.578,62.625,62.323,62.625,63.244z
	 M57.074,72.103v3.053c0,0.919-0.744,1.664-1.664,1.664h-3.053c-0.92,0-1.666-0.745-1.666-1.664v-3.053
	c0-0.92,0.746-1.665,1.666-1.665h3.053C56.33,70.438,57.074,71.183,57.074,72.103z M51.801,54.071c0-0.92,0.746-1.665,1.666-1.665
	h3.053c0.92,0,1.666,0.745,1.666,1.665v3.054c0,0.919-0.746,1.664-1.666,1.664h-3.053c-0.92,0-1.666-0.745-1.666-1.664V54.071z
	 M52.496,63.244v3.052c0,0.92-0.746,1.664-1.664,1.664h-3.055c-0.92,0-1.664-0.744-1.664-1.664v-3.052
	c0-0.921,0.744-1.666,1.664-1.666h3.055C51.75,61.578,52.496,62.323,52.496,63.244z M46.945,72.103v3.053
	c0,0.919-0.746,1.664-1.664,1.664h-3.053c-0.92,0-1.666-0.745-1.666-1.664v-3.053c0-0.92,0.746-1.665,1.666-1.665h3.053
	C46.199,70.438,46.945,71.183,46.945,72.103z M41.672,54.071c0-0.92,0.746-1.665,1.666-1.665h3.053c0.92,0,1.666,0.745,1.666,1.665
	v3.054c0,0.919-0.746,1.664-1.666,1.664h-3.053c-0.92,0-1.666-0.745-1.666-1.664V54.071z M42.645,63.244v3.052
	c0,0.92-0.746,1.664-1.666,1.664h-3.053c-0.918,0-1.666-0.744-1.666-1.664v-3.052c0-0.921,0.748-1.666,1.666-1.666h3.053
	C41.898,61.578,42.645,62.323,42.645,63.244z M31.82,54.071c0-0.92,0.746-1.665,1.666-1.665h3.053c0.918,0,1.664,0.745,1.664,1.665
	v3.054c0,0.919-0.746,1.664-1.664,1.664h-3.053c-0.92,0-1.666-0.745-1.666-1.664V54.071z M22.939,54.071
	c0-0.92,0.746-1.665,1.666-1.665h3.053c0.92,0,1.666,0.745,1.666,1.665v3.054c0,0.919-0.746,1.664-1.666,1.664h-3.053
	c-0.92,0-1.666-0.745-1.666-1.664V54.071z M13.504,54.071c0-0.92,0.746-1.665,1.666-1.665h3.053c0.918,0,1.666,0.745,1.666,1.665
	v3.054c0,0.919-0.748,1.664-1.666,1.664H15.17c-0.92,0-1.666-0.745-1.666-1.664V54.071z M13.504,66.296v-3.052
	c0-0.921,0.746-1.666,1.666-1.666h16.098c0.918,0,1.664,0.745,1.664,1.666v3.052c0,0.92-0.746,1.664-1.664,1.664H15.17
	C14.25,67.96,13.504,67.216,13.504,66.296z M27.658,72.103v3.053c0,0.919-0.5,1.664-1.119,1.664H15.734
	c-0.617,0-1.119-0.745-1.119-1.664v-3.053c0-0.92,0.502-1.665,1.119-1.665h10.805C27.158,70.438,27.658,71.183,27.658,72.103z
	 M29.324,84.509c0,0.92-0.566,1.665-1.262,1.665H15.877c-0.697,0-1.262-0.745-1.262-1.665v-3.053c0-0.92,0.564-1.665,1.262-1.665
	h12.186c0.695,0,1.262,0.745,1.262,1.665V84.509z M30.711,75.155v-3.053c0-0.92,0.746-1.665,1.666-1.665h3.051
	c0.92,0,1.666,0.745,1.666,1.665v3.053c0,0.919-0.746,1.664-1.666,1.664h-3.051C31.457,76.819,30.711,76.074,30.711,75.155z
	 M67.621,84.779c0,0.919-1.332,1.665-2.975,1.665H35.904c-1.643,0-2.973-0.746-2.973-1.665v-3.053c0-0.919,1.33-1.665,2.973-1.665
	h28.742c1.643,0,2.975,0.746,2.975,1.665V84.779z M67.344,67.96c-0.92,0-1.666-0.744-1.666-1.664v-3.052
	c0-0.921,0.746-1.666,1.666-1.666h3.053c0.918,0,1.664,0.745,1.664,1.666v3.052c0,0.92-0.746,1.664-1.664,1.664H67.344z
	 M86.025,84.509c0,0.92-0.564,1.665-1.26,1.665H72.578c-0.695,0-1.262-0.745-1.262-1.665v-3.053c0-0.92,0.566-1.665,1.262-1.665
	h12.188c0.695,0,1.26,0.745,1.26,1.665V84.509z M86.025,75.155c0,0.919-0.564,1.665-1.26,1.665h-6.094H76.48h-3.902
	c-0.695,0-1.262-0.746-1.262-1.665v-3.053c0-0.92,0.566-1.665,1.262-1.665h2.641v-6.443c0-0.92,0.566-1.665,1.262-1.665h8.285
	c0.695,0,1.26,0.745,1.26,1.665V75.155z M86.492,57.125c0,0.919-0.746,1.664-1.666,1.664h-3.053c-0.92,0-1.666-0.745-1.666-1.664
	v-3.054c0-0.92,0.746-1.665,1.666-1.665h3.053c0.92,0,1.666,0.745,1.666,1.665V57.125z"/>
</svg>
