<?xml version="1.0" encoding="utf-8"?>
<!-- Generator: Adobe Illustrator 16.0.3, SVG Export Plug-In . SVG Version: 6.00 Build 0)  -->
<!DOCTYPE svg PUBLIC "-//W3C//DTD SVG 1.1//EN" "http://www.w3.org/Graphics/SVG/1.1/DTD/svg11.dtd">
<svg version="1.1" id="Layer_1" xmlns="http://www.w3.org/2000/svg" xmlns:xlink="http://www.w3.org/1999/xlink" x="0px" y="0px"
	 width="128px" height="128px" viewBox="0 0 128 128" style="enable-background:new 0 0 128 128;" xml:space="preserve">
<style type="text/css">
<![CDATA[
	.st0{fill-rule:evenodd;clip-rule:evenodd;}
]]>
</style>
<g>
	<path d="M78.918,19.245H49.082c-5.815,0-8.775,2.96-8.775,8.775v71.959c0,5.815,2.96,8.775,8.775,8.775h29.837
		c5.815,0,8.775-2.96,8.775-8.775V28.021C87.694,22.205,84.734,19.245,78.918,19.245z M56.054,24.034h15.893
		c0.989,0,1.795,0.801,1.795,1.792c0,0.993-0.806,1.794-1.795,1.794H56.054c-0.991,0-1.795-0.801-1.795-1.794
		C54.259,24.835,55.063,24.034,56.054,24.034z M64.129,107.29c-2.583,0-4.677-2.095-4.677-4.677s2.094-4.677,4.677-4.677
		c2.582,0,4.676,2.095,4.676,4.677S66.711,107.29,64.129,107.29z M85.281,95.812H42.5V30.435h42.78V95.812z"/>
	<path d="M45.557,94.275h5.075c0.961,0,1.74-0.778,1.74-1.739v-5.077c0-0.961-0.779-1.74-1.74-1.74h-5.075
		c-0.962,0-1.741,0.779-1.741,1.74v5.077C43.816,93.497,44.595,94.275,45.557,94.275z"/>
	<path d="M56.087,94.275h5.076c0.96,0,1.739-0.778,1.739-1.739v-5.077c0-0.961-0.779-1.74-1.739-1.74h-5.076
		c-0.961,0-1.74,0.779-1.74,1.74v5.077C54.347,93.497,55.126,94.275,56.087,94.275z"/>
	<path d="M66.618,94.275h5.076c0.961,0,1.74-0.778,1.74-1.739v-5.077c0-0.961-0.779-1.74-1.74-1.74h-5.076
		c-0.961,0-1.74,0.779-1.74,1.74v5.077C64.877,93.497,65.657,94.275,66.618,94.275z"/>
	<path d="M77.149,94.275h5.075c0.961,0,1.74-0.778,1.74-1.739v-5.077c0-0.961-0.779-1.74-1.74-1.74h-5.075
		c-0.962,0-1.741,0.779-1.741,1.74v5.077C75.408,93.497,76.187,94.275,77.149,94.275z"/>
	<path d="M45.557,41.133h5.075c0.961,0,1.74-0.779,1.74-1.739v-5.077c0-0.961-0.779-1.74-1.74-1.74h-5.075
		c-0.962,0-1.741,0.779-1.741,1.74v5.077C43.816,40.354,44.595,41.133,45.557,41.133z"/>
	<path d="M56.087,41.133h5.076c0.96,0,1.739-0.779,1.739-1.739v-5.077c0-0.961-0.779-1.74-1.739-1.74h-5.076
		c-0.961,0-1.74,0.779-1.74,1.74v5.077C54.347,40.354,55.126,41.133,56.087,41.133z"/>
	<path d="M66.618,41.133h5.076c0.961,0,1.74-0.779,1.74-1.739v-5.077c0-0.961-0.779-1.74-1.74-1.74h-5.076
		c-0.961,0-1.74,0.779-1.74,1.74v5.077C64.877,40.354,65.657,41.133,66.618,41.133z"/>
	<path d="M77.149,41.133h5.075c0.961,0,1.74-0.779,1.74-1.739v-5.077c0-0.961-0.779-1.74-1.74-1.74h-5.075
		c-0.962,0-1.741,0.779-1.741,1.74v5.077C75.408,40.354,76.187,41.133,77.149,41.133z"/>
	<path d="M45.557,51.664h5.075c0.961,0,1.74-0.779,1.74-1.74v-5.077c0-0.961-0.779-1.739-1.74-1.739h-5.075
		c-0.962,0-1.741,0.778-1.741,1.739v5.077C43.816,50.885,44.595,51.664,45.557,51.664z"/>
	<path d="M56.087,51.664h5.076c0.96,0,1.739-0.779,1.739-1.74v-5.077c0-0.961-0.779-1.739-1.739-1.739h-5.076
		c-0.961,0-1.74,0.778-1.74,1.739v5.077C54.347,50.885,55.126,51.664,56.087,51.664z"/>
	<path d="M66.618,51.664h5.076c0.961,0,1.74-0.779,1.74-1.74v-5.077c0-0.961-0.779-1.739-1.74-1.739h-5.076
		c-0.961,0-1.74,0.778-1.74,1.739v5.077C64.877,50.885,65.657,51.664,66.618,51.664z"/>
	<path d="M77.149,51.664h5.075c0.961,0,1.74-0.779,1.74-1.74v-5.077c0-0.961-0.779-1.739-1.74-1.739h-5.075
		c-0.962,0-1.741,0.778-1.741,1.739v5.077C75.408,50.885,76.187,51.664,77.149,51.664z"/>
	<path d="M45.557,62.194h5.075c0.961,0,1.74-0.779,1.74-1.74v-5.077c0-0.96-0.779-1.738-1.74-1.738h-5.075
		c-0.962,0-1.741,0.778-1.741,1.738v5.077C43.816,61.415,44.595,62.194,45.557,62.194z"/>
	<path d="M56.087,62.194h5.076c0.96,0,1.739-0.779,1.739-1.74v-5.077c0-0.96-0.779-1.738-1.739-1.738h-5.076
		c-0.961,0-1.74,0.778-1.74,1.738v5.077C54.347,61.415,55.126,62.194,56.087,62.194z"/>
	<path d="M66.618,62.194h5.076c0.961,0,1.74-0.779,1.74-1.74v-5.077c0-0.96-0.779-1.738-1.74-1.738h-5.076
		c-0.961,0-1.74,0.778-1.74,1.738v5.077C64.877,61.415,65.657,62.194,66.618,62.194z"/>
</g>
</svg>
