<?xml version="1.0" encoding="utf-8"?>
<!-- Generator: Adobe Illustrator 16.0.3, SVG Export Plug-In . SVG Version: 6.00 Build 0)  -->
<!DOCTYPE svg PUBLIC "-//W3C//DTD SVG 1.1//EN" "http://www.w3.org/Graphics/SVG/1.1/DTD/svg11.dtd">
<svg version="1.1" id="Layer_1" xmlns="http://www.w3.org/2000/svg" xmlns:xlink="http://www.w3.org/1999/xlink" x="0px" y="0px"
	 width="60px" height="60px" viewBox="0 0 60 60" enable-background="new 0 0 60 60" xml:space="preserve">
<g>
	<path fill="#231F20" d="M18.812,24.777c2.038,6.115,6.23,9.766,11.215,9.766c5.035,0,9.244-3.701,11.258-9.902
		c0.119-0.369,0.301-0.63,0.551-0.993c0.791-1.145,1.447-2.32,1.447-5.126C43.283,7.514,36.411,2.5,30.027,2.5
		c-6.676,0-13.41,4.955-13.41,16.021c0,3.035,0.88,4.244,1.587,5.216C18.483,24.122,18.686,24.4,18.812,24.777z M40.348,18.521
		c0,2.118-0.429,2.739-0.926,3.458c-0.316,0.458-0.675,0.977-0.929,1.754c-1.601,4.931-4.767,7.874-8.466,7.874
		c-3.66,0-6.811-2.9-8.432-7.758c-0.27-0.809-0.668-1.355-1.019-1.839c-0.55-0.756-1.024-1.408-1.024-3.489
		c0-0.697,0.034-1.363,0.095-2.002c0.146,0.048,0.292,0.097,0.425,0.142c0.646,0.219,1.206,0.408,1.617,0.408
		c0.635,0,0.85-0.435,0.899-0.566c0.218-0.568,0.235-1.171,0.251-1.704c0.03-1.024,0.088-1.372,0.678-1.575
		c0.453-0.157,0.859-0.233,1.24-0.233c0.842,0,1.461,0.385,2.179,0.83c0.821,0.509,1.751,1.086,3.093,1.086
		c1.411,0,2.408-0.519,3.288-0.976c0.779-0.404,1.451-0.754,2.354-0.754c0.294,0,0.596,0.036,0.922,0.11
		c0.447,0.101,0.55,0.357,0.604,1.527c0.026,0.551,0.053,1.121,0.254,1.642c0.052,0.132,0.266,0.561,0.885,0.561
		c0.402,0,0.938-0.195,1.56-0.423c0.106-0.039,0.229-0.083,0.353-0.127C40.311,17.122,40.348,17.805,40.348,18.521z M30.027,5.436
		c4.409,0,8.851,2.986,10.021,9.55c-0.214,0.071-0.431,0.148-0.656,0.229c-0.202,0.074-0.46,0.169-0.678,0.238
		c-0.028-0.221-0.038-0.467-0.05-0.708c-0.047-1.003-0.117-2.521-1.746-2.89c-0.428-0.097-0.847-0.146-1.246-0.146
		c-1.262,0-2.161,0.467-3.031,0.919c-0.802,0.416-1.56,0.81-2.611,0.81c-0.924,0-1.57-0.401-2.319-0.866
		c-0.793-0.491-1.692-1.05-2.952-1.05c-0.547,0-1.109,0.103-1.72,0.313c-1.596,0.552-1.636,1.921-1.665,2.921
		c-0.008,0.269-0.016,0.529-0.047,0.767c-0.244-0.07-0.55-0.174-0.783-0.253c-0.239-0.081-0.472-0.156-0.697-0.227
		C21.016,8.438,25.537,5.436,30.027,5.436z"/>
	<path fill="#231F20" d="M40.511,32.421c-0.596-0.399-1.393-0.311-1.885,0.212c-2.554,2.709-5.52,4.141-8.577,4.141H29.95
		c-3.057,0-6.022-1.432-8.576-4.141c-0.493-0.522-1.291-0.611-1.884-0.212C12.467,37.123,8.08,46.169,8.041,56.027
		c-0.002,0.391,0.152,0.765,0.428,1.041S9.118,57.5,9.509,57.5H29.95c0.034,0,0.065,0,0.099,0H50.49
		c0.391,0,0.765-0.155,1.041-0.432c0.274-0.276,0.429-0.65,0.428-1.041C51.92,46.169,47.533,37.123,40.511,32.421z M30.049,54.565
		c-0.033,0-0.064,0-0.099,0H11.017c0.409-7.845,3.812-14.93,9.135-19.01c2.922,2.722,6.286,4.152,9.799,4.152h0.099
		c3.514,0,6.878-1.431,9.799-4.152c5.324,4.08,8.727,11.165,9.135,19.01H30.049z"/>
</g>
</svg>
